<?xml version="1.0" encoding="utf-8"?>
<!-- Svg Vector Icons : http://www.onlinewebfonts.com/icon -->
<!DOCTYPE svg PUBLIC "-//W3C//DTD SVG 1.1//EN" "http://www.w3.org/Graphics/SVG/1.1/DTD/svg11.dtd">
<svg version="1.1" xmlns="http://www.w3.org/2000/svg" xmlns:xlink="http://www.w3.org/1999/xlink" x="0px" y="0px" viewBox="0 0 256 256" enable-background="new 0 0 256 256" xml:space="preserve">
<metadata> Svg Vector Icons : http://www.onlinewebfonts.com/icon </metadata>
<g><g><path fill="#ffffff" d="M154.5,246c-15.9,0-31.4-3.1-45.9-9.3c-14.1-5.9-26.7-14.4-37.5-25.3c-10.8-10.8-19.3-23.5-25.3-37.5c-6.2-14.5-9.3-30-9.3-45.9c0-15.9,3.1-31.4,9.3-45.9C51.7,68,60.2,55.4,71.1,44.6c10.8-10.8,23.5-19.3,37.5-25.3c14.5-6.2,30-9.3,45.9-9.3c19,0,37.9,4.6,54.6,13.4l0.1,0c0.9,0.5,9.2,5.2,9.2,13.5c0,3.9-1.9,7.7-5.4,10.4c-2.1,1.7-4.2,2.5-4.6,2.6l-0.4,0.1l-0.4,0.1c-17,4.3-32.3,14.3-43.2,28.2c-11.2,14.3-17.1,31.4-17.1,49.6c0,18.2,5.9,35.3,17.1,49.6c10.9,13.8,26.2,23.8,43.2,28.2l0.4,0.1c2.7,0.9,11.5,4.3,11.5,12.1c0,3.8-1.9,7.5-5.5,11c-2.1,2-4.2,3.3-4.5,3.5l-0.2,0.1l-0.2,0.1C192.3,241.4,173.5,246,154.5,246z M154.5,23.9c-27.8,0-54,10.8-73.6,30.5C61.2,74,50.4,100.2,50.4,128c0,27.8,10.8,54,30.5,73.6c19.7,19.7,45.8,30.5,73.6,30.5c16.9,0,33-3.9,47.9-11.7c0.6-0.4,1.2-0.8,1.7-1.3c-0.1,0-0.1,0-0.2-0.1c-19.8-5.1-37.6-16.8-50.4-32.9c-6.4-8.1-11.4-17.1-14.8-26.8c-3.5-10-5.3-20.6-5.3-31.3c0-10.7,1.8-21.3,5.3-31.3c3.4-9.7,8.4-18.7,14.8-26.9c12.6-16,30.4-27.7,50-32.9c0.1-0.1,0.3-0.2,0.5-0.3c-0.5-0.4-1-0.9-1.4-1.1C187.7,27.8,171.5,23.9,154.5,23.9z"/></g></g>
</svg>
