<?xml version="1.0" encoding="utf-8"?>
<!-- Svg Vector Icons : http://www.onlinewebfonts.com/icon -->
<!DOCTYPE svg PUBLIC "-//W3C//DTD SVG 1.1//EN" "http://www.w3.org/Graphics/SVG/1.1/DTD/svg11.dtd">
<svg version="1.1" xmlns="http://www.w3.org/2000/svg" xmlns:xlink="http://www.w3.org/1999/xlink" x="0px" y="0px" viewBox="0 0 256 256" enable-background="new 0 0 256 256" xml:space="preserve">
<metadata> Svg Vector Icons : http://www.onlinewebfonts.com/icon </metadata>
<g><g><path fill="#ffffff" d="M129.5,244.6c-23.6,0-46.4-7-65.8-20.3c-19-13-33.5-31-42.2-52.2c-2.4-5.9-4.3-11.9-5.7-18.1c-0.8-3.3,1.3-6.7,4.7-7.4c3.3-0.8,6.7,1.3,7.4,4.7c1.3,5.5,3,10.9,5.1,16.2c7.7,19,20.8,35.1,37.7,46.7c17.3,11.9,37.7,18.1,58.8,18.1c57.4,0,104.1-46.7,104.1-104.1c0-57.4-46.7-104.1-104.1-104.1c-21.1,0-41.4,6.3-58.8,18.1C53.8,53.6,40.7,69.7,33,88.6c-1.3,3.2-4.9,4.7-8.1,3.4c-3.2-1.3-4.7-4.9-3.4-8.1c8.6-21.2,23.2-39.2,42.2-52.2c19.4-13.3,42.1-20.3,65.8-20.3c31.1,0,60.4,12.1,82.4,34.1c22,22,34.1,51.3,34.1,82.4c0,31.1-12.1,60.4-34.1,82.4S160.6,244.6,129.5,244.6z"/><path fill="#ffffff" d="M27.4,92.5c-2.5,0-4.9-1.6-5.8-4L10.4,58.5c-1.2-3.2,0.4-6.8,3.6-8c3.2-1.2,6.8,0.4,8,3.6l9.3,24.8l25.6-6.3c3.3-0.8,6.7,1.2,7.5,4.6c0.8,3.3-1.2,6.7-4.6,7.5l-30.9,7.6C28.4,92.4,27.9,92.5,27.4,92.5z"/></g></g>
</svg>
