<?xml version="1.0" encoding="utf-8"?>
<!-- Svg Vector Icons : http://www.onlinewebfonts.com/icon -->
<!DOCTYPE svg PUBLIC "-//W3C//DTD SVG 1.1//EN" "http://www.w3.org/Graphics/SVG/1.1/DTD/svg11.dtd">
<svg version="1.1" xmlns="http://www.w3.org/2000/svg" xmlns:xlink="http://www.w3.org/1999/xlink" x="0px" y="0px" viewBox="0 0 256 256" enable-background="new 0 0 256 256" xml:space="preserve">
<metadata> Svg Vector Icons : http://www.onlinewebfonts.com/icon </metadata>
<g> <path fill="#ffffff" d="M238,94.1c-5.5-14.3-13.6-27.3-24-38.4C203.3,44,190.5,34.9,176,28.5c-5.3-2.4-11.5,0-13.9,5.3 c-2.4,5.3,0,11.5,5.3,13.9c23.5,10.5,41.6,29.6,50.9,53.9c9.3,24.3,8.7,50.7-1.7,74.2c-16.1,36.1-51.6,57.6-88.8,57.6 c-13.1,0-26.5-2.7-39.3-8.4c-48.9-21.7-71-79.2-49.2-128.1c10.4-23.3,30-42,53.8-51.1c5.4-2.1,8.1-8.2,6.1-13.6 c-2.1-5.4-8.2-8.1-13.6-6.1C71.1,31.7,58,40,46.7,50.7C35.4,61.5,26.4,74.2,20.1,88.4c-6.4,14.5-9.8,29.8-10.1,45.7 c-0.2,15.3,2.4,30.3,7.9,44.6c5.5,14.3,13.6,27.3,24,38.4c10.8,11.6,23.6,20.7,38.1,27.2c14.5,6.4,29.8,9.8,45.7,10.1 c0.6,0,1.3,0,1.9,0c14.6,0,29-2.7,42.7-8c14.3-5.5,27.3-13.6,38.4-24c11.6-10.8,20.7-23.6,27.2-38.1c6.4-14.5,9.8-29.8,10.1-45.7 C246.2,123.4,243.5,108.4,238,94.1z"/> <path fill="#ffffff" d="M128,145.2c5.8,0,10.5-4.7,10.5-10.5V12.2c0-5.8-4.7-10.5-10.5-10.5c-5.8,0-10.5,4.7-10.5,10.5v122.5 C117.5,140.5,122.2,145.2,128,145.2z"/></g>
</svg>
