<?xml version="1.0" encoding="utf-8"?>
<!-- Svg Vector Icons : http://www.onlinewebfonts.com/icon -->
<!DOCTYPE svg PUBLIC "-//W3C//DTD SVG 1.1//EN" "http://www.w3.org/Graphics/SVG/1.1/DTD/svg11.dtd">
<svg version="1.1" xmlns="http://www.w3.org/2000/svg" xmlns:xlink="http://www.w3.org/1999/xlink" x="0px" y="0px" viewBox="0 0 256 256" enable-background="new 0 0 256 256" xml:space="preserve">
<metadata> Svg Vector Icons : http://www.onlinewebfonts.com/icon </metadata>
<g><g><path fill="#ffffff" d="M99.8,78.4c-5.5,0-10,4.5-10,10v79.2c0,5.5,4.5,10,10,10c5.5,0,10-4.5,10-10V88.4C109.8,82.9,105.3,78.4,99.8,78.4z"/><path fill="#ffffff" d="M236.7,82.1c-5.9-14-14.4-26.7-25.3-37.5c-10.8-10.8-23.5-19.3-37.5-25.3c-14.5-6.1-30-9.3-45.9-9.3s-31.4,3.1-45.9,9.3c-14,5.9-26.7,14.4-37.5,25.3C33.7,55.4,25.2,68,19.3,82.1c-6.1,14.5-9.3,30-9.3,45.9s3.1,31.4,9.3,45.9c5.9,14,14.4,26.7,25.3,37.5c10.8,10.8,23.5,19.3,37.5,25.3c14.6,6.1,30,9.3,45.9,9.3s31.4-3.1,45.9-9.3c14-5.9,26.7-14.4,37.5-25.3c10.8-10.8,19.3-23.5,25.3-37.5c6.2-14.5,9.3-30,9.3-45.9S242.9,96.6,236.7,82.1z M167.5,221.6c-12.5,5.3-25.8,8-39.5,8c-13.7,0-27-2.7-39.5-8c-12.1-5.1-23-12.5-32.3-21.8c-9.3-9.3-16.7-20.2-21.8-32.3c-5.3-12.5-8-25.8-8-39.5c0-13.7,2.7-27,8-39.5c5.1-12.1,12.5-23,21.8-32.3c9.3-9.3,20.2-16.7,32.3-21.8c12.5-5.3,25.8-8,39.5-8c13.7,0,27,2.7,39.5,8c12.1,5.1,23,12.5,32.3,21.8c9.3,9.3,16.7,20.2,21.8,32.3c5.3,12.5,8,25.8,8,39.5c0,13.7-2.7,27-8,39.5c-5.1,12.1-12.5,23-21.8,32.3C190.5,209.2,179.6,216.5,167.5,221.6z"/><path fill="#ffffff" d="M156.2,78.4c-5.5,0-10,4.5-10,10v79.2c0,5.5,4.5,10,10,10c5.5,0,10-4.5,10-10V88.4C166.2,82.9,161.7,78.4,156.2,78.4z"/></g></g>
</svg>
